<svg xmlns="http://www.w3.org/2000/svg" xmlns:xlink="http://www.w3.org/1999/xlink" width="500" zoomAndPan="magnify" viewBox="0 0 375 374.999991" height="500" preserveAspectRatio="xMidYMid meet" version="1.0"><defs><g/><clipPath id="21e50289e0"><path d="M 51.3125 83.316406 L 178 83.316406 L 178 233.316406 L 51.3125 233.316406 Z M 51.3125 83.316406 " clip-rule="nonzero"/></clipPath><clipPath id="843905472c"><path d="M 210.875 83.316406 L 337.625 83.316406 L 337.625 233.316406 L 210.875 233.316406 Z M 210.875 83.316406 " clip-rule="nonzero"/></clipPath><clipPath id="cf3c30492e"><path d="M 136.925781 133.878906 L 251.675781 133.878906 L 251.675781 233.628906 L 136.925781 233.628906 Z M 136.925781 133.878906 " clip-rule="nonzero"/></clipPath></defs><g clip-path="url(#21e50289e0)"><path fill="#203e71" d="M 51.3125 233.226562 L 51.3125 139.070312 L 115.125 139.070312 L 140.753906 177.492188 L 89.742188 177.492188 L 89.742188 194.796875 L 152.25 194.796875 L 177.875 233.226562 Z M 90.925781 121.8125 L 65.351562 83.390625 L 152.289062 83.390625 L 177.863281 121.8125 Z M 90.925781 121.8125 " fill-opacity="1" fill-rule="nonzero"/></g><g clip-path="url(#843905472c)"><path fill="#203e71" d="M 257.277344 233.324219 L 257.277344 139.101562 L 295.75 139.101562 L 295.75 233.324219 Z M 236.785156 121.804688 L 210.886719 83.332031 L 337.507812 83.332031 L 337.507812 121.804688 Z M 236.785156 121.804688 " fill-opacity="1" fill-rule="nonzero"/></g><g clip-path="url(#cf3c30492e)"><path fill="#c87b3d" d="M 232.25 133.957031 C 232.121094 134.128906 231.996094 134.316406 231.875 134.527344 C 220.507812 154.359375 209.089844 174.164062 197.671875 193.96875 C 196.898438 195.304688 196.132812 196.640625 195.359375 197.976562 C 195.078125 198.460938 194.726562 198.902344 194.265625 199.570312 C 184.625 182.84375 175.140625 166.386719 165.523438 149.703125 L 184.398438 149.703125 C 184.164062 150.1875 184.050781 150.476562 183.898438 150.75 C 182.035156 154.003906 180.199219 157.269531 178.308594 160.503906 L 188.011719 177.273438 C 196.40625 162.726562 204.648438 148.421875 212.988281 133.957031 L 136.925781 133.957031 L 146.28125 150.132812 C 146.5 150.347656 146.699219 150.617188 146.886719 150.957031 C 152.730469 161.167969 158.613281 171.371094 164.535156 181.535156 C 164.691406 181.808594 164.808594 182.066406 164.882812 182.308594 C 164.886719 182.328125 164.894531 182.351562 164.898438 182.378906 L 175.027344 199.882812 C 175.027344 199.875 175.035156 199.875 175.035156 199.871094 C 175.039062 199.871094 175.039062 199.867188 175.039062 199.867188 C 177.253906 203.703125 179.449219 207.5 181.640625 211.289062 L 185.585938 218.109375 L 194.339844 233.25 C 194.957031 232.191406 195.363281 231.503906 195.761719 230.8125 C 198.453125 226.140625 201.148438 221.46875 203.839844 216.800781 L 203.96875 216.578125 L 251.308594 133.957031 Z M 232.25 133.957031 " fill-opacity="1" fill-rule="nonzero"/></g><g fill="#203e71" fill-opacity="1"><g transform="translate(85.392039, 263.384148)"><g><path d="M 16.171875 -11.5 L 4.671875 -11.5 L 4.671875 -9.296875 L 16.171875 -9.296875 L 16.171875 -5.75 L 4.671875 -5.75 L 4.671875 -3.546875 L 16.171875 -3.546875 L 16.171875 0 L 1.125 0 L 1.125 -15.046875 L 16.171875 -15.046875 Z M 16.171875 -11.5 "/></g></g></g><g fill="#203e71" fill-opacity="1"><g transform="translate(102.681085, 263.384148)"><g><path d="M 16.71875 -15.046875 L 14.28125 0 L 3.546875 0 L 1.125 -15.046875 L 4.96875 -15.046875 L 6.8125 -3.546875 L 11.03125 -3.546875 L 12.875 -15.046875 Z M 16.71875 -15.046875 "/></g></g></g><g fill="#203e71" fill-opacity="1"><g transform="translate(120.509011, 263.384148)"><g><path d="M 16.171875 -11.5 L 4.671875 -11.5 L 4.671875 -9.296875 L 16.171875 -9.296875 L 16.171875 -5.75 L 4.671875 -5.75 L 4.671875 -3.546875 L 16.171875 -3.546875 L 16.171875 0 L 1.125 0 L 1.125 -15.046875 L 16.171875 -15.046875 Z M 16.171875 -11.5 "/></g></g></g><g fill="#203e71" fill-opacity="1"><g transform="translate(137.798057, 263.384148)"><g><path d="M 12.625 -15.046875 L 16.171875 -15.046875 L 16.171875 0.109375 L 16.015625 0 L 12.625 0 L 12.625 -2.453125 L 4.671875 -8.09375 L 4.671875 0 L 1.125 0 L 1.125 -15.046875 L 4.671875 -15.046875 L 4.671875 -12.578125 L 12.625 -6.9375 Z M 12.625 -15.046875 "/></g></g></g><g fill="#203e71" fill-opacity="1"><g transform="translate(155.087103, 263.384148)"><g><path d="M 1.125 -15.046875 L 16.171875 -15.046875 L 16.171875 -11.5 L 10.421875 -11.5 L 10.421875 0 L 6.875 0 L 6.875 -11.5 L 1.125 -11.5 Z M 1.125 -15.046875 "/></g></g></g><g fill="#203e71" fill-opacity="1"><g transform="translate(172.376149, 263.384148)"><g><path d="M 4.671875 -11.5 L 4.671875 -3.546875 L 12.625 -3.546875 L 12.625 -11.5 Z M 1.125 0 L 1.125 -15.046875 L 16.171875 -15.046875 L 16.171875 0 Z M 1.125 0 "/></g></g></g><g fill="#203e71" fill-opacity="1"><g transform="translate(189.665195, 263.384148)"><g><path d="M 1.125 -3.546875 L 12.625 -3.546875 L 12.625 -5.75 L 1.125 -5.75 L 1.125 -15.046875 L 16.171875 -15.046875 L 16.171875 -11.5 L 4.671875 -11.5 L 4.671875 -9.296875 L 16.171875 -9.296875 L 16.171875 0 L 1.125 0 Z M 1.125 -3.546875 "/></g></g></g><g fill="#203e71" fill-opacity="1"><g transform="translate(206.954241, 263.384148)"><g/></g></g><g fill="#203e71" fill-opacity="1"><g transform="translate(220.426225, 263.384148)"><g><path d="M 1.125 -15.046875 L 16.171875 -15.046875 L 16.171875 -11.5 L 10.421875 -11.5 L 10.421875 0 L 6.875 0 L 6.875 -11.5 L 1.125 -11.5 Z M 1.125 -15.046875 "/></g></g></g><g fill="#203e71" fill-opacity="1"><g transform="translate(237.715271, 263.384148)"><g><path d="M 16.171875 -11.5 L 4.671875 -11.5 L 4.671875 -9.296875 L 16.171875 -9.296875 L 16.171875 -5.75 L 4.671875 -5.75 L 4.671875 -3.546875 L 16.171875 -3.546875 L 16.171875 0 L 1.125 0 L 1.125 -15.046875 L 16.171875 -15.046875 Z M 16.171875 -11.5 "/></g></g></g><g fill="#203e71" fill-opacity="1"><g transform="translate(255.004317, 263.384148)"><g><path d="M 1.125 -15.046875 L 16.171875 -15.046875 L 16.171875 -11.5 L 4.671875 -11.5 L 4.671875 -3.546875 L 16.171875 -3.546875 L 16.171875 0 L 1.125 0 Z M 1.125 -15.046875 "/></g></g></g><g fill="#203e71" fill-opacity="1"><g transform="translate(272.293363, 263.384148)"><g><path d="M 4.671875 -15.046875 L 4.671875 -9.296875 L 12.625 -9.296875 L 12.625 -15.046875 L 16.171875 -15.046875 L 16.171875 0 L 12.625 0 L 12.625 -5.75 L 4.671875 -5.75 L 4.671875 0 L 1.125 0 L 1.125 -15.046875 Z M 4.671875 -15.046875 "/></g></g></g></svg>